# Tiled2Unity generated file. Do not modify by hand.
# Wavefront file for 'Level1_mesh_0001.obj'

# Vertices (Count = 192)
v 0 -18 0
v -1.2 -18 0
v -1.2 -16.8 0
v 0 -16.8 0
v -1.2 -18 0
v -2.4 -18 0
v -2.4 -16.8 0
v -1.2 -16.8 0
v -2.4 -18 0
v -3.6 -18 0
v -3.6 -16.8 0
v -2.4 -16.8 0
v -3.6 -18 0
v -4.8 -18 0
v -4.8 -16.8 0
v -3.6 -16.8 0
v -4.8 -18 0
v -6 -18 0
v -6 -16.8 0
v -4.8 -16.8 0
v -6 -18 0
v -7.2 -18 0
v -7.2 -16.8 0
v -6 -16.8 0
v -7.2 -18 0
v -8.400001 -18 0
v -8.400001 -16.8 0
v -7.2 -16.8 0
v -8.400001 -18 0
v -9.6 -18 0
v -9.6 -16.8 0
v -8.400001 -16.8 0
v -9.6 -18 0
v -10.8 -18 0
v -10.8 -16.8 0
v -9.6 -16.8 0
v -10.8 -18 0
v -12 -18 0
v -12 -16.8 0
v -10.8 -16.8 0
v -12 -18 0
v -13.2 -18 0
v -13.2 -16.8 0
v -12 -16.8 0
v -13.2 -18 0
v -14.4 -18 0
v -14.4 -16.8 0
v -13.2 -16.8 0
v -14.4 -18 0
v -15.6 -18 0
v -15.6 -16.8 0
v -14.4 -16.8 0
v -15.6 -18 0
v -16.8 -18 0
v -16.8 -16.8 0
v -15.6 -16.8 0
v -16.8 -18 0
v -18 -18 0
v -18 -16.8 0
v -16.8 -16.8 0
v -18 -18 0
v -19.2 -18 0
v -19.2 -16.8 0
v -18 -16.8 0
v -19.2 -18 0
v -20.4 -18 0
v -20.4 -16.8 0
v -19.2 -16.8 0
v -20.4 -18 0
v -21.6 -18 0
v -21.6 -16.8 0
v -20.4 -16.8 0
v -21.6 -18 0
v -22.8 -18 0
v -22.8 -16.8 0
v -21.6 -16.8 0
v -22.8 -18 0
v -24 -18 0
v -24 -16.8 0
v -22.8 -16.8 0
v -24 -18 0
v -25.2 -18 0
v -25.2 -16.8 0
v -24 -16.8 0
v -25.2 -18 0
v -26.4 -18 0
v -26.4 -16.8 0
v -25.2 -16.8 0
v -26.4 -18 0
v -27.6 -18 0
v -27.6 -16.8 0
v -26.4 -16.8 0
v -27.6 -18 0
v -28.8 -18 0
v -28.8 -16.8 0
v -27.6 -16.8 0
v 0 -19.2 0
v -1.2 -19.2 0
v -1.2 -18 0
v 0 -18 0
v -1.2 -19.2 0
v -2.4 -19.2 0
v -2.4 -18 0
v -1.2 -18 0
v -2.4 -19.2 0
v -3.6 -19.2 0
v -3.6 -18 0
v -2.4 -18 0
v -3.6 -19.2 0
v -4.8 -19.2 0
v -4.8 -18 0
v -3.6 -18 0
v -4.8 -19.2 0
v -6 -19.2 0
v -6 -18 0
v -4.8 -18 0
v -6 -19.2 0
v -7.2 -19.2 0
v -7.2 -18 0
v -6 -18 0
v -7.2 -19.2 0
v -8.400001 -19.2 0
v -8.400001 -18 0
v -7.2 -18 0
v -8.400001 -19.2 0
v -9.6 -19.2 0
v -9.6 -18 0
v -8.400001 -18 0
v -9.6 -19.2 0
v -10.8 -19.2 0
v -10.8 -18 0
v -9.6 -18 0
v -10.8 -19.2 0
v -12 -19.2 0
v -12 -18 0
v -10.8 -18 0
v -12 -19.2 0
v -13.2 -19.2 0
v -13.2 -18 0
v -12 -18 0
v -13.2 -19.2 0
v -14.4 -19.2 0
v -14.4 -18 0
v -13.2 -18 0
v -14.4 -19.2 0
v -15.6 -19.2 0
v -15.6 -18 0
v -14.4 -18 0
v -15.6 -19.2 0
v -16.8 -19.2 0
v -16.8 -18 0
v -15.6 -18 0
v -16.8 -19.2 0
v -18 -19.2 0
v -18 -18 0
v -16.8 -18 0
v -18 -19.2 0
v -19.2 -19.2 0
v -19.2 -18 0
v -18 -18 0
v -19.2 -19.2 0
v -20.4 -19.2 0
v -20.4 -18 0
v -19.2 -18 0
v -20.4 -19.2 0
v -21.6 -19.2 0
v -21.6 -18 0
v -20.4 -18 0
v -21.6 -19.2 0
v -22.8 -19.2 0
v -22.8 -18 0
v -21.6 -18 0
v -22.8 -19.2 0
v -24 -19.2 0
v -24 -18 0
v -22.8 -18 0
v -24 -19.2 0
v -25.2 -19.2 0
v -25.2 -18 0
v -24 -18 0
v -25.2 -19.2 0
v -26.4 -19.2 0
v -26.4 -18 0
v -25.2 -18 0
v -26.4 -19.2 0
v -27.6 -19.2 0
v -27.6 -18 0
v -26.4 -18 0
v -27.6 -19.2 0
v -28.8 -19.2 0
v -28.8 -18 0
v -27.6 -18 0

# Texture cooridinates (Count = 16)
vt 0 0.6666666
vt 0.3333333 0.6666666
vt 0.3333333 1
vt 0 1
vt 0.6666667 0.6666666
vt 0.6666667 1
vt 1 0.6666666
vt 1 1
vt 0 0
vt 0.3333333 0
vt 0.3333333 0.3333333
vt 0 0.3333333
vt 0.6666667 0
vt 0.6666667 0.3333333
vt 1 0
vt 1 0.3333333

# Normal
vn 0 0 -1

# Mesh description
g Level1_mesh_0001

# Faces
f 1/1/1 2/2/1 3/3/1 4/4/1
f 5/2/1 6/5/1 7/6/1 8/3/1
f 9/2/1 10/5/1 11/6/1 12/3/1
f 13/2/1 14/5/1 15/6/1 16/3/1
f 17/2/1 18/5/1 19/6/1 20/3/1
f 21/2/1 22/5/1 23/6/1 24/3/1
f 25/2/1 26/5/1 27/6/1 28/3/1
f 29/2/1 30/5/1 31/6/1 32/3/1
f 33/2/1 34/5/1 35/6/1 36/3/1
f 37/2/1 38/5/1 39/6/1 40/3/1
f 41/2/1 42/5/1 43/6/1 44/3/1
f 45/2/1 46/5/1 47/6/1 48/3/1
f 49/2/1 50/5/1 51/6/1 52/3/1
f 53/2/1 54/5/1 55/6/1 56/3/1
f 57/2/1 58/5/1 59/6/1 60/3/1
f 61/2/1 62/5/1 63/6/1 64/3/1
f 65/2/1 66/5/1 67/6/1 68/3/1
f 69/2/1 70/5/1 71/6/1 72/3/1
f 73/2/1 74/5/1 75/6/1 76/3/1
f 77/2/1 78/5/1 79/6/1 80/3/1
f 81/2/1 82/5/1 83/6/1 84/3/1
f 85/2/1 86/5/1 87/6/1 88/3/1
f 89/2/1 90/5/1 91/6/1 92/3/1
f 93/5/1 94/7/1 95/8/1 96/6/1
f 97/9/1 98/10/1 99/11/1 100/12/1
f 101/10/1 102/13/1 103/14/1 104/11/1
f 105/10/1 106/13/1 107/14/1 108/11/1
f 109/10/1 110/13/1 111/14/1 112/11/1
f 113/10/1 114/13/1 115/14/1 116/11/1
f 117/10/1 118/13/1 119/14/1 120/11/1
f 121/10/1 122/13/1 123/14/1 124/11/1
f 125/10/1 126/13/1 127/14/1 128/11/1
f 129/10/1 130/13/1 131/14/1 132/11/1
f 133/10/1 134/13/1 135/14/1 136/11/1
f 137/10/1 138/13/1 139/14/1 140/11/1
f 141/10/1 142/13/1 143/14/1 144/11/1
f 145/10/1 146/13/1 147/14/1 148/11/1
f 149/10/1 150/13/1 151/14/1 152/11/1
f 153/10/1 154/13/1 155/14/1 156/11/1
f 157/10/1 158/13/1 159/14/1 160/11/1
f 161/10/1 162/13/1 163/14/1 164/11/1
f 165/10/1 166/13/1 167/14/1 168/11/1
f 169/10/1 170/13/1 171/14/1 172/11/1
f 173/10/1 174/13/1 175/14/1 176/11/1
f 177/10/1 178/13/1 179/14/1 180/11/1
f 181/10/1 182/13/1 183/14/1 184/11/1
f 185/10/1 186/13/1 187/14/1 188/11/1
f 189/13/1 190/15/1 191/16/1 192/14/1

